<svg width="173" height="54" viewBox="0 0 173 54" xmlns="http://www.w3.org/2000/svg"><g fill="none" fill-rule="evenodd"><path d="M15.15 5.467c-2.05 0-3.638.77-4.763 2.31C9.262 9.32 8.7 11.468 8.7 14.222c0 5.73 2.15 8.596 6.45 8.596 1.805 0 3.99-.45 6.557-1.353v4.57c-2.11.88-4.465 1.32-7.066 1.32-3.738 0-6.597-1.135-8.578-3.403-1.98-2.267-2.97-5.522-2.97-9.764 0-2.672.486-5.013 1.46-7.023.97-2.01 2.37-3.55 4.19-4.623C10.566 1.468 12.703.932 15.15.932c2.496 0 5.004.603 7.524 1.81l-1.758 4.43c-.96-.457-1.928-.856-2.9-1.195-.973-.34-1.928-.51-2.866-.51zm17.473 7.242h1.758c1.724 0 2.995-.288 3.815-.862.82-.575 1.23-1.477 1.23-2.707 0-1.218-.418-2.085-1.256-2.6-.84-.517-2.137-.774-3.895-.774h-1.652v6.943zm0 4.43V27h-5.45V1.3h7.49c3.49 0 6.075.637 7.75 1.908C44.09 4.478 44.93 6.41 44.93 9c0 1.512-.416 2.856-1.248 4.034-.832 1.178-2.01 2.1-3.534 2.77 3.868 5.776 6.387 9.508 7.56 11.196h-6.048l-6.135-9.86h-2.9zM50.94 27V1.3h5.45V27h-5.45zm22.798 0L67.55 6.838h-.157c.222 4.1.334 6.838.334 8.21V27h-4.87V1.3h7.418l6.082 19.653h.106L82.913 1.3h7.42V27h-5.08V14.836c0-.574.008-1.236.025-1.986.018-.75.097-2.743.238-5.977h-.16L78.73 27h-4.992zm38.233-7.137c0 2.32-.834 4.15-2.504 5.485-1.67 1.336-3.993 2.004-6.97 2.004-2.742 0-5.168-.516-7.277-1.547v-5.063c1.733.774 3.2 1.32 4.402 1.635 1.2.316 2.3.475 3.296.475 1.195 0 2.112-.23 2.75-.686.64-.457.96-1.137.96-2.04 0-.503-.142-.95-.423-1.344-.28-.392-.694-.77-1.24-1.134-.544-.363-1.654-.943-3.33-1.74-1.57-.738-2.748-1.447-3.533-2.127-.786-.678-1.413-1.47-1.88-2.372-.47-.902-.704-1.957-.704-3.164 0-2.273.77-4.06 2.31-5.36C99.37 1.58 101.5.93 104.22.93c1.337 0 2.61.158 3.824.474 1.213.317 2.48.762 3.806 1.336L110.09 6.98c-1.37-.564-2.505-.957-3.402-1.18-.896-.222-1.778-.333-2.645-.333-1.03 0-1.822.24-2.373.72-.55.48-.826 1.108-.826 1.88 0 .482.11.9.334 1.258.222.358.577.703 1.063 1.037.488.334 1.64.935 3.455 1.802 2.403 1.15 4.05 2.3 4.94 3.454.89 1.154 1.336 2.57 1.336 4.245zm27.985-5.748c0 4.254-1.055 7.524-3.164 9.81-2.108 2.284-5.132 3.427-9.07 3.427-3.937 0-6.96-1.143-9.07-3.428-2.11-2.285-3.164-5.567-3.164-9.844 0-4.277 1.058-7.544 3.173-9.8 2.114-2.256 5.147-3.384 9.096-3.384 3.95 0 6.97 1.137 9.06 3.41 2.093 2.274 3.14 5.544 3.14 9.81zm-18.756 0c0 2.87.544 5.033 1.634 6.487 1.09 1.453 2.72 2.18 4.887 2.18 4.348 0 6.522-2.89 6.522-8.667 0-5.79-2.162-8.683-6.486-8.683-2.168 0-3.803.73-4.904 2.188-1.102 1.46-1.653 3.624-1.653 6.495zM168.08 27h-6.926l-11.18-19.44h-.158c.223 3.432.334 5.88.334 7.346V27h-4.87V1.3h6.874l11.162 19.25h.123c-.176-3.34-.264-5.702-.264-7.085V1.3h4.904V27zM42.125 53l-2.133-5.45h-6.867L31.015 53H29l6.773-17.203h1.676L44.186 53h-2.062zm-2.754-7.242l-1.99-5.31c-.26-.67-.525-1.495-.798-2.47-.172.75-.418 1.573-.738 2.47l-2.016 5.31h5.543zm15.165 3.738c0 1.195-.445 2.117-1.336 2.766-.89.648-2.14.972-3.75.972-1.704 0-3.032-.27-3.985-.808V50.62c.617.314 1.28.56 1.986.74.708.18 1.39.27 2.046.27 1.016 0 1.797-.163 2.344-.487.547-.325.82-.82.82-1.483 0-.5-.217-.928-.65-1.283-.434-.356-1.28-.775-2.537-1.26-1.196-.445-2.045-.834-2.55-1.166-.503-.33-.878-.708-1.124-1.13-.247-.422-.37-.925-.37-1.51 0-1.048.425-1.874 1.277-2.48.852-.605 2.02-.908 3.504-.908 1.384 0 2.735.28 4.056.844l-.692 1.582c-1.29-.532-2.457-.797-3.504-.797-.922 0-1.617.145-2.086.434-.468.29-.703.688-.703 1.196 0 .343.09.636.265.88.176.24.46.47.85.69.39.22 1.14.535 2.25.95 1.523.554 2.552 1.112 3.087 1.675.536.563.803 1.27.803 2.12zm11.45 0c0 1.195-.446 2.117-1.337 2.766-.89.648-2.14.972-3.75.972-1.703 0-3.03-.27-3.984-.808V50.62c.617.314 1.28.56 1.986.74.707.18 1.39.27 2.045.27 1.016 0 1.797-.163 2.344-.487.546-.325.82-.82.82-1.483 0-.5-.217-.928-.65-1.283-.435-.356-1.28-.775-2.538-1.26-1.195-.445-2.045-.834-2.55-1.166-.503-.33-.878-.708-1.124-1.13-.246-.422-.37-.925-.37-1.51 0-1.048.427-1.874 1.278-2.48.852-.605 2.02-.908 3.504-.908 1.383 0 2.735.28 4.055.844l-.692 1.582c-1.29-.532-2.457-.797-3.503-.797-.922 0-1.618.145-2.086.434-.47.29-.704.688-.704 1.196 0 .343.088.636.264.88.176.24.46.47.85.69.39.22 1.14.535 2.25.95 1.523.554 2.552 1.112 3.088 1.675.535.563.802 1.27.802 2.12zm4.992-9.34v8.332c0 1.047.238 1.828.714 2.344.478.516 1.224.773 2.24.773 1.343 0 2.326-.367 2.947-1.1.62-.735.932-1.935.932-3.6v-6.75h1.944V53h-1.606l-.28-1.723h-.106c-.4.633-.95 1.118-1.658 1.453-.708.336-1.514.504-2.42.504-1.563 0-2.733-.37-3.51-1.113-.778-.74-1.166-1.93-1.166-3.56v-8.404h1.97zm18.76-.234c.572 0 1.083.047 1.536.14l-.27 1.805c-.53-.117-1-.176-1.405-.176-1.04 0-1.928.423-2.666 1.267-.74.844-1.108 1.895-1.108 3.152V53H83.88V40.156h1.604l.223 2.38h.094c.477-.837 1.052-1.48 1.723-1.934.672-.454 1.41-.68 2.215-.68zM101.095 53l-.387-1.828h-.094c-.64.805-1.28 1.35-1.916 1.635-.636.285-1.43.427-2.385.427-1.273 0-2.27-.328-2.994-.984-.722-.656-1.084-1.59-1.084-2.8 0-2.595 2.075-3.954 6.223-4.08l2.18-.07v-.796c0-1.008-.217-1.752-.65-2.233-.434-.48-1.128-.72-2.08-.72-1.07 0-2.282.33-3.634.985l-.597-1.488c.633-.344 1.326-.613 2.08-.81.754-.194 1.51-.292 2.267-.292 1.532 0 2.666.34 3.405 1.02.738.68 1.107 1.77 1.107 3.27V53h-1.44zM96.7 51.63c1.21 0 2.16-.333 2.853-.997.69-.664 1.037-1.594 1.037-2.79v-1.16l-1.945.083c-1.547.054-2.663.295-3.346.72-.685.426-1.027 1.088-1.027 1.987 0 .703.213 1.238.64 1.605.425.367 1.02.55 1.786.55zM115.33 53v-8.31c0-1.045-.238-1.827-.715-2.342-.476-.516-1.222-.774-2.238-.774-1.345 0-2.33.363-2.954 1.09-.625.727-.938 1.926-.938 3.598V53h-1.945V40.156h1.582l.316 1.758h.095c.4-.633.957-1.123 1.676-1.47.72-.348 1.52-.522 2.403-.522 1.547 0 2.71.373 3.492 1.12.782.745 1.172 1.938 1.172 3.58V53h-1.945zm11.074.234c-1.86 0-3.3-.572-4.318-1.716-1.02-1.145-1.53-2.764-1.53-4.858 0-2.148.518-3.808 1.553-4.98 1.036-1.172 2.51-1.758 4.425-1.758.617 0 1.235.066 1.852.2.617.132 1.1.288 1.453.468l-.598 1.652c-.43-.172-.898-.314-1.406-.428-.508-.113-.957-.17-1.348-.17-2.61 0-3.914 1.665-3.914 4.993 0 1.578.32 2.79.955 3.633.636.843 1.58 1.265 2.83 1.265 1.07 0 2.167-.23 3.292-.69v1.72c-.86.447-1.94.67-3.246.67zm11.72 0c-1.9 0-3.397-.578-4.495-1.734-1.097-1.156-1.646-2.762-1.646-4.816 0-2.07.51-3.715 1.53-4.934 1.02-1.22 2.388-1.828 4.107-1.828 1.61 0 2.884.53 3.82 1.588.94 1.058 1.408 2.455 1.408 4.19v1.23H134c.04 1.508.42 2.652 1.143 3.433.722.782 1.74 1.172 3.052 1.172 1.383 0 2.75-.29 4.102-.867v1.734c-.688.297-1.338.51-1.95.64-.615.128-1.355.192-2.222.192zm-.528-11.683c-1.032 0-1.854.337-2.467 1.01-.612.67-.974 1.6-1.083 2.788h6.715c0-1.227-.274-2.166-.82-2.82-.547-.65-1.33-.977-2.344-.977z" fill="#0A68B8"/><path d="M1.5 45h19M152.5 45h19" stroke="#0A68B8" stroke-width="2" stroke-linecap="square"/></g></svg>